<svg xmlns="http://www.w3.org/2000/svg" data-name="Layer 1" viewBox="0 0 72 90" x="0px" y="0px"><path d="m58.09,29.73c.36-.42.32-1.05-.09-1.41-.42-.36-1.05-.32-1.41.09-.06.07-5.01,5.61-14.2,7.54-.03,0-.06.01-.09.02-1.91.4-4.01.63-6.28.63s-4.37-.24-6.29-.64c-.06-.02-.12-.03-.18-.04-9.11-1.95-14.05-7.45-14.11-7.52-.37-.41-1-.46-1.41-.09-.41.36-.46.99-.09,1.41.12.14,1.31,1.47,3.53,3.06l-3.54,4.16c-.36.42-.31,1.05.11,1.41.42.36,1.05.31,1.41-.11l3.69-4.34c2.28,1.41,5.29,2.86,9.01,3.76l-1.61,4.96c-.17.53.12,1.09.64,1.26.1.03.21.05.31.05.42,0,.81-.27.95-.69l1.67-5.16c1.82.33,3.79.52,5.91.52s4.06-.19,5.87-.51l1.72,5.16c.17.52.74.81,1.26.63.52-.17.81-.74.63-1.26l-1.65-4.94c3.74-.91,6.76-2.36,9.05-3.77l3.69,4.34c.36.42.99.47,1.41.12.42-.36.47-.99.12-1.41l-3.54-4.17c2.22-1.59,3.4-2.92,3.53-3.06Z"/><text x="0" y="87" fill="#000000" font-size="5px" font-weight="bold" font-family="'Helvetica Neue', Helvetica, Arial-Unicode, Arial, Sans-serif">Created by Md Ahasan Habib</text><text x="0" y="92" fill="#000000" font-size="5px" font-weight="bold" font-family="'Helvetica Neue', Helvetica, Arial-Unicode, Arial, Sans-serif">from the Noun Project</text></svg>